<svg width="16" height="16" viewBox="0 0 16 16" fill="none" xmlns="http://www.w3.org/2000/svg">
<path fill-rule="evenodd" clip-rule="evenodd" d="M8.00042 0L0.232422 7.768L0.890755 8.42448L8.00042 1.31481L15.1101 8.42448L15.7675 7.768L8.00042 0ZM13.1145 8.56117V15.0702H10.324V10.4209H5.6757V15.0701H2.88613V8.56117H1.95535V16H14.0444V8.56117H13.1145ZM9.39511 11.3507V15.0711H6.60555V11.3507H9.39511ZM8.00015 5.7717C8.51342 5.7717 8.93 6.18828 8.93 6.70155C8.93 7.21483 8.51342 7.63141 8.00015 7.63141C7.48687 7.63141 7.07029 7.21483 7.07029 6.70155C7.07029 6.18828 7.48687 5.7717 8.00015 5.7717ZM9.85986 6.70155C9.85986 5.67593 9.02577 4.84184 8.00015 4.84184C6.97451 4.84184 6.14044 5.67593 6.14044 6.70155C6.14044 7.72718 6.97452 8.56126 8.00015 8.56126C9.02577 8.56126 9.85986 7.72718 9.85986 6.70155Z" fill="#008748"/>
</svg>
